<?xml version="1.0" encoding="UTF-8"?>
<svg version="1.1" xmlns="http://www.w3.org/2000/svg" width="1491" height="1491">
<path d="M0 0 C9.24168285 -0.0454945 18.48328924 -0.08205462 27.72505951 -0.10362434 C32.01808388 -0.11398563 36.31102654 -0.12800171 40.60400391 -0.15087891 C44.76023644 -0.17288444 48.91639124 -0.18462588 53.07267761 -0.18975449 C54.64480307 -0.19340124 56.21692511 -0.20051933 57.78901672 -0.21146011 C89.09983269 -0.42035546 116.19275216 7.45350297 139.125 29.625 C149.03415995 39.61139926 156.49199557 51.6681296 161 65 C161.49166153 66.39146996 161.49166153 66.39146996 161.99325562 67.81105042 C165.19067921 77.72679542 165.52746797 86.66568321 165.390625 96.9921875 C165.38314335 98.67611003 165.37745955 100.3600414 165.37347412 102.04397583 C165.35836881 106.42691059 165.31922212 110.80929563 165.2746582 115.1920166 C165.23337491 119.68392505 165.2153933 124.17592434 165.1953125 128.66796875 C165.15270919 137.44556178 165.08464708 146.22271207 165 155 C177.64911054 154.96179361 190.29792854 154.90221585 202.94680882 154.81609726 C208.82156478 154.77675521 214.69617383 154.74450191 220.57104492 154.72900391 C226.25116596 154.71374959 231.9308827 154.67914977 237.61082268 154.63169098 C239.76706343 154.61696717 241.92336193 154.60896422 244.07965279 154.60811615 C265.8814079 154.59093365 285.15532938 151.10647759 302 136 C302.75925781 135.32195312 303.51851562 134.64390625 304.30078125 133.9453125 C317.5664526 121.41538427 326.22728093 103.20473247 327.15821838 84.88674927 C327.18153481 83.22795242 327.18153481 83.22795242 327.20532227 81.53564453 C327.22526749 80.27479034 327.24521271 79.01393616 327.26576233 77.71487427 C327.28274134 76.35418823 327.29962033 74.99350094 327.31640625 73.6328125 C327.33700116 72.22890649 327.35799826 70.82500632 327.37937927 69.42111206 C327.43433821 65.7419918 327.4838619 62.06281803 327.53222656 58.38360596 C327.58263385 54.62287687 327.63821913 50.86222464 327.69335938 47.1015625 C327.8006203 39.73444025 327.90213521 32.3672537 328 25 C320.72623921 25.04204587 313.45322044 25.11473213 306.17993164 25.20751953 C303.71190098 25.23553423 301.24378385 25.25684443 298.77563477 25.27099609 C274.48491713 25.41854044 253.26062291 28.41809051 235 46 C217.96087904 64.59925591 214.20197541 85.64418252 213 110 C241.55503968 109.32493996 263.14709033 100.8676238 286 84 C285.04364352 88.97964926 282.13033016 92.13514061 279 96 C278.4328125 96.71542969 277.865625 97.43085937 277.28125 98.16796875 C263.00957718 115.25164491 239.05532627 129.46612832 217 133 C214.79677398 133.07970902 212.59136318 133.10772312 210.38671875 133.09765625 C209.13955078 133.09443359 207.89238281 133.09121094 206.60742188 133.08789062 C205.31384766 133.07951172 204.02027344 133.07113281 202.6875 133.0625 C200.71813477 133.05573242 200.71813477 133.05573242 198.70898438 133.04882812 C195.4726099 133.03705949 192.23632822 133.0206176 189 133 C188.92287814 126.47542036 188.87095946 119.95096145 188.83520508 113.42602539 C188.82027351 111.21406666 188.79992089 109.0021367 188.77368164 106.7902832 C188.43351236 77.34229551 193.37300255 50.57557844 214.28466797 28.57275391 C233.22348189 9.46786207 257.06232261 0.14522952 283.89907074 -0.10505676 C287.68670967 -0.12002687 291.47408762 -0.11042909 295.26171875 -0.09765625 C296.90509498 -0.09578715 298.54847177 -0.09436558 300.19184875 -0.09336853 C304.48088161 -0.08958205 308.76987966 -0.0797856 313.05889893 -0.06866455 C317.45006846 -0.05836645 321.8412437 -0.05385306 326.23242188 -0.04882812 C334.82163041 -0.03815919 343.41081085 -0.02113026 352 0 C352.06988274 11.84932434 352.12300405 23.69859868 352.15543652 35.54808807 C352.17101193 41.05182742 352.19209969 46.55542452 352.22631836 52.05908203 C352.25920418 57.38241449 352.27691389 62.70561117 352.28463173 68.02903748 C352.29012328 70.04774611 352.30084484 72.06644834 352.31719017 74.08509827 C352.53439207 102.05265799 346.45447062 127.93017622 327 149 C326.38898438 149.6909375 325.77796875 150.381875 325.1484375 151.09375 C308.27136945 169.19171234 283.59837774 179.19396138 259.11644363 180.10761261 C250.76706655 180.27991122 242.41696182 180.22954548 234.06640625 180.1953125 C231.37499603 180.1904528 228.68358597 180.18863352 225.99217224 180.18673706 C219.67088778 180.18056558 213.34967399 180.16421463 207.02842039 180.14403808 C199.82144821 180.12154268 192.61447233 180.11065165 185.40747368 180.10064721 C170.60494661 180.07984359 155.80247455 180.04475363 141 180 C140.99453156 178.30229713 140.99453156 178.30229713 140.98895264 176.57029724 C140.95183484 165.84673193 140.89388072 155.12344934 140.81609726 144.40009975 C140.77677258 138.88854813 140.74451095 133.3771527 140.72900391 127.86547852 C140.7137379 122.53547328 140.67911821 117.20589789 140.63169098 111.87608528 C140.61697901 109.85381899 140.60896491 107.8314913 140.60811615 105.80917168 C140.5901253 84.41544617 136.72163224 65.51773552 122 49 C121.41863281 48.32582031 120.83726562 47.65164063 120.23828125 46.95703125 C109.61280988 35.44053503 92.58232098 26.8211407 76.83140564 25.79321289 C72.97850311 25.68957404 69.12742096 25.6447743 65.2734375 25.62109375 C63.83866288 25.60487561 62.40389889 25.58769129 60.96914673 25.56959534 C57.20335909 25.5241207 53.43755573 25.48923741 49.67163086 25.45739746 C43.66789914 25.40538256 37.66432964 25.33929734 31.66078568 25.26918221 C29.5884358 25.24679589 27.51610435 25.23023283 25.44369507 25.21446228 C16.91204731 25.12555431 8.50434577 24.68350176 0 24 C0 16.08 0 8.16 0 0 Z " fill="#000000" transform="translate(569,533)"/>
<path d="M0 0 C1.24030975 -0.00029205 2.48061951 -0.00058411 3.7585144 -0.00088501 C7.1235572 0.00026067 10.48834745 0.01021561 13.85334563 0.02426291 C17.38336791 0.03685788 20.91339439 0.03794761 24.44343567 0.04031372 C31.11192782 0.04650294 37.78035355 0.06287872 44.4488166 0.0830127 C52.0474667 0.10545184 59.64612016 0.11638519 67.2447952 0.12640357 C82.86090765 0.14724754 98.47695401 0.18237316 114.09301758 0.22705078 C114.09888382 1.30874039 114.10475006 2.39042999 114.11079407 3.50489807 C114.16829974 13.75751969 114.2412037 24.00993484 114.32873249 34.26234531 C114.37323661 39.53173318 114.41253537 44.80104727 114.43945312 50.07055664 C114.4656869 55.16709112 114.50622724 60.26333856 114.55620384 65.35969353 C114.57273804 67.29264663 114.5843352 69.22564923 114.59063148 71.1586628 C114.67761074 95.43371527 119.26404664 115.94230368 136.46801758 134.10205078 C150.60040508 147.49837643 169.40747147 154.20175365 188.68066406 154.43237305 C189.40345047 154.44227264 190.12623688 154.45217224 190.8709259 154.46237183 C193.23528892 154.49369715 195.59967195 154.5186283 197.96411133 154.54345703 C199.61320995 154.56405165 201.2623036 154.58504875 202.91139221 154.60643005 C207.23330631 154.66139187 211.55526599 154.71091436 215.8772583 154.75927734 C220.29492202 154.80968247 224.71252026 154.8652689 229.13012695 154.92041016 C237.78436976 155.02767465 246.43866877 155.1287095 255.09301758 155.22705078 C255.09301758 163.14705078 255.09301758 171.06705078 255.09301758 179.22705078 C245.26850835 179.31818723 235.44428953 179.39124156 225.61944962 179.43429947 C221.05513793 179.45498709 216.49113565 179.48295036 211.92700195 179.52880859 C186.81526914 179.77428968 163.97554822 179.95093409 141.09301758 168.22705078 C140.03727539 167.70369141 138.9815332 167.18033203 137.89379883 166.64111328 C129.43488415 162.10757731 122.81750912 155.96713922 116.09301758 149.22705078 C115.25512695 148.40076172 114.41723633 147.57447266 113.55395508 146.72314453 C96.3085563 128.73696401 89.55232189 105.09167809 89.80004883 80.77001953 C89.80565912 79.12950533 89.80992242 77.48898603 89.81291199 75.84846497 C89.82424817 71.57577098 89.85361547 67.30339353 89.88702393 63.03082275 C89.91797005 58.65291625 89.93146923 54.27495752 89.9465332 49.89697266 C89.97849859 41.3401884 90.02955499 32.7836592 90.09301758 24.22705078 C77.86959449 24.2653033 65.64647304 24.32494634 53.42328739 24.41095352 C47.74588527 24.45025006 42.06863413 24.48252525 36.39111328 24.49804688 C30.8990093 24.51333172 25.4073209 24.54798365 19.91540337 24.5953598 C17.83338497 24.61005269 15.7513072 24.61808474 13.66923714 24.61893463 C-8.96559276 24.63744454 -28.13923717 28.08745118 -45.90698242 43.22705078 C-46.89698242 43.94892578 -47.88698242 44.67080078 -48.90698242 45.41455078 C-62.89096229 57.38421776 -69.94562609 76.45964879 -71.68212891 94.26353455 C-72.10214982 99.79931094 -72.14718593 105.34174411 -72.22338867 110.89111328 C-72.24416977 112.16433441 -72.26495087 113.43755554 -72.28636169 114.74935913 C-72.34030303 118.09963947 -72.39065886 121.44993304 -72.43920898 124.80029297 C-72.48985755 128.23295874 -72.54531496 131.66554665 -72.6003418 135.09814453 C-72.7069393 141.80771753 -72.80880267 148.5173496 -72.90698242 155.22705078 C-66.34535462 155.1592876 -59.78428746 155.06919962 -53.22314453 154.96459961 C-50.99762669 154.93163255 -48.7720309 154.90351586 -46.54638672 154.88061523 C-20.39809036 154.60438014 1.66386122 151.0414524 21.40551758 132.47705078 C35.41297302 117.74193532 41.04726221 99.00112657 41.71801758 79.10205078 C41.77602539 77.66732422 41.77602539 77.66732422 41.83520508 76.20361328 C41.92821886 73.87826879 42.01405529 71.55290743 42.09301758 69.22705078 C16.17277457 70.97472237 -6.68056903 76.44174357 -26.94604492 93.72314453 C-28.90698242 95.22705078 -28.90698242 95.22705078 -30.90698242 95.22705078 C-24.32121933 76.28449509 -2.32833038 63.23570279 14.76660156 54.83740234 C28.14073982 48.47144899 39.73495425 46.05040103 54.53051758 46.16455078 C55.64362305 46.1690625 56.75672852 46.17357422 57.90356445 46.17822266 C60.63343858 46.18993885 63.36319932 46.20634379 66.09301758 46.22705078 C66.19580133 53.30293125 66.26505265 60.37861416 66.31274414 67.45507812 C66.33265953 69.85423983 66.35980181 72.2533543 66.39477539 74.65234375 C66.82738666 105.12599086 60.89387212 130.11338108 39.58129883 152.82470703 C18.5560886 173.12377185 -6.99908165 179.60072301 -35.57885742 179.42236328 C-37.3553247 179.41862499 -39.13179407 179.41578188 -40.90826416 179.41378784 C-45.54420847 179.4062156 -50.18002395 179.38662352 -54.81591797 179.36437988 C-59.5624009 179.34378201 -64.30890501 179.33475655 -69.05541992 179.32470703 C-78.33933014 179.30337047 -87.6231455 179.26931364 -96.90698242 179.22705078 C-96.95362771 168.30766402 -96.98901339 157.38830154 -97.01060677 146.46883488 C-97.02097821 141.39674892 -97.03501381 136.32473187 -97.05786133 131.25268555 C-97.07982941 126.34432245 -97.09160075 121.43602502 -97.09673691 116.5276165 C-97.10039018 114.66883755 -97.10752184 112.81006158 -97.11844254 110.95131111 C-97.28549369 81.29897369 -92.82265019 53.73259195 -71.90698242 31.22705078 C-71.10260742 30.35435547 -70.29823242 29.48166016 -69.46948242 28.58251953 C-51.16068139 9.50131595 -26.23497011 -0.16432457 0 0 Z " fill="#000000" transform="translate(665.906982421875,777.77294921875)"/>
<path d="M0 0 C7.92 0 15.84 0 24 0 C24.04898438 2.43632813 24.09796875 4.87265625 24.1484375 7.3828125 C24.20274106 9.79253292 24.25993177 12.2021692 24.31738281 14.61181641 C24.35521811 16.26214088 24.39014187 17.91253519 24.421875 19.56298828 C24.93430407 45.90504496 29.27944402 68.77493537 49 88 C65.60017421 103.50101157 85.64110335 107.5805066 107.5625 108.5625 C110.676875 108.706875 113.79125 108.85125 117 109 C117 116.92 117 124.84 117 133 C83.77633454 133.66893286 54.60916331 130.07997709 29.53173828 106.49609375 C10.73700634 88.13872726 0.55521457 64.06216575 -0.0512085 37.78070068 C-0.12340968 31.62465724 -0.09128015 25.46873596 -0.0625 19.3125 C-0.05747491 17.43554807 -0.05291379 15.55859484 -0.04882812 13.68164062 C-0.03876056 9.12103471 -0.01917119 4.56061268 0 0 Z " fill="#000000" transform="translate(569,580)"/>
<path d="M0 0 C4.58637216 -0.06964682 9.17084037 -0.12913389 13.75732422 -0.16479492 C15.31077358 -0.17969189 16.86418235 -0.20001651 18.41748047 -0.22631836 C44.89241758 -0.66271842 69.01807907 7.84897772 88.40771484 26.19702148 C105.52008049 43.2210687 116.86364864 66.62572628 117.11352539 91.01733398 C117.11336869 92.92692789 117.10781621 94.83652686 117.09765625 96.74609375 C117.0962413 97.75720718 117.09482635 98.76832062 117.09336853 99.81007385 C117.08779961 103.01924681 117.07525287 106.22834836 117.0625 109.4375 C117.05748098 111.62174378 117.05291878 113.80598866 117.04882812 115.99023438 C117.03869399 121.32687214 117.01911253 126.66335673 117 132 C109.08 132 101.16 132 93 132 C92.97421875 129.23753906 92.9484375 126.47507812 92.921875 123.62890625 C92.88323483 120.89142557 92.83814648 118.15411954 92.79248047 115.41674805 C92.76461445 113.54444002 92.74323309 111.67202186 92.72900391 109.79956055 C92.60658625 94.58304546 91.70409894 79.22330042 84.25 65.5625 C83.90565918 64.90693115 83.56131836 64.2513623 83.20654297 63.57592773 C72.98064426 44.69823977 56.4095276 33.27889078 36.375 26.91015625 C31.07545023 25.48099526 25.98788985 24.86626299 20.5078125 24.68359375 C19.30898438 24.64169922 18.11015625 24.59980469 16.875 24.55664062 C15.6375 24.51732422 14.4 24.47800781 13.125 24.4375 C11.86429688 24.39431641 10.60359375 24.35113281 9.3046875 24.30664062 C6.20324292 24.20090956 3.10163517 24.09998412 0 24 C0 16.08 0 8.16 0 0 Z " fill="#000000" transform="translate(804,778)"/>
<path d="M0 0 C19.33300738 -0.09366223 38.66596836 -0.16408608 57.999156 -0.20724869 C66.97697242 -0.22782728 75.95464742 -0.25585735 84.93237305 -0.30175781 C92.76221848 -0.34177024 100.59196145 -0.36746695 108.42190629 -0.37635398 C112.56344029 -0.38154448 116.70468125 -0.3936445 120.84612083 -0.42292023 C124.75398289 -0.45031779 128.66143463 -0.45839659 132.56938362 -0.45243073 C133.9942842 -0.4535202 135.41920027 -0.46132814 136.84401703 -0.4768219 C153.64031092 -0.65032042 166.92030531 3.91325061 179.0625 15.6875 C181.6697372 18.34188435 183.40894319 20.65663947 185 24 C165.24129872 24.09359645 145.48264266 24.16405408 125.72376537 24.20724869 C116.5485968 24.22784112 107.37356627 24.255898 98.19848633 24.30175781 C90.1979951 24.34172749 82.19760389 24.36745692 74.19701558 24.37635398 C69.96388664 24.38155164 65.73104375 24.39369816 61.49800682 24.42292023 C57.50643407 24.45024983 53.51526278 24.45840995 49.52360535 24.45243073 C48.06561406 24.45352318 46.6076081 24.4613722 45.14969826 24.4768219 C29.33136777 24.63610325 16.9529189 19.89155599 5.4375 8.875 C2.65849235 6.09021479 1.3904743 3.6595388 0 0 Z " fill="#000000" transform="translate(653,733)"/>
</svg>
