<svg version="1.1" id="Layer_1" xmlns="http://www.w3.org/2000/svg" xmlns:xlink="http://www.w3.org/1999/xlink" x="0px" y="0px"
	 width="100%" viewBox="0 0 467 130" enable-background="new 0 0 467 130" xml:space="preserve">
<path fill="#FFFFFF" opacity="1.000000" stroke="none" 
	d="
M309.000000,131.000000 
	C206.000000,131.000000 103.500000,131.000000 1.000000,131.000000 
	C1.000000,87.666664 1.000000,44.333332 1.000000,1.000000 
	C156.666672,1.000000 312.333344,1.000000 468.000000,1.000000 
	C468.000000,44.333332 468.000000,87.666664 468.000000,131.000000 
	C415.166656,131.000000 362.333344,131.000000 309.000000,131.000000 
M186.292358,38.998383 
	C185.846222,39.295437 185.400101,39.592491 184.328232,40.148724 
	C181.941040,43.099434 179.553848,46.050144 176.833328,49.697624 
	C175.888885,55.217838 174.104095,60.745186 174.150925,66.256981 
	C174.319794,86.136200 189.542877,95.756371 208.385452,91.056366 
	C221.542892,87.774437 226.003723,77.039558 225.957520,65.778641 
	C225.943604,62.388206 225.246063,59.004292 225.156769,55.609631 
	C224.993515,49.402256 219.096603,41.106728 212.695816,38.210209 
	C203.993057,34.915695 195.374222,34.543503 186.292358,38.998383 
M38.566719,74.000000 
	C22.200560,73.007736 12.283367,81.688370 9.157380,89.807594 
	C4.880797,100.915314 7.731043,112.510986 7.007055,124.000000 
	C14.736161,124.000000 21.785181,123.456924 28.713665,124.138733 
	C37.197998,124.973648 50.102219,115.199898 51.789806,104.943405 
	C52.741028,99.162277 51.961266,93.096336 51.961266,87.148537 
	C42.272285,86.283531 34.941929,89.562943 28.902308,95.843552 
	C29.053024,96.281433 29.203741,96.719307 29.354460,97.157181 
	C34.414558,95.978065 39.474655,94.798950 44.610989,93.602066 
	C46.494701,110.323746 33.133530,120.109200 14.000012,116.348045 
	C14.000012,111.916275 13.812910,107.428345 14.040306,102.961510 
	C14.468225,94.555763 17.988625,87.673210 25.819599,84.125084 
	C36.197868,79.422806 47.186050,83.139389 58.000011,81.903152 
	C58.000011,88.219749 57.683491,93.736198 58.070522,99.202843 
	C58.733017,108.560272 63.202511,115.889931 71.312408,120.677589 
	C81.588158,126.743874 92.850494,122.884880 103.754158,124.130089 
	C103.754158,121.457390 103.754158,119.393509 103.754158,116.999969 
	C97.214249,116.999969 90.913673,117.040443 84.613815,116.990715 
	C74.555870,116.911331 65.585838,107.017159 65.935028,98.085075 
	C66.244827,90.160408 66.000000,82.214073 66.000000,74.000000 
	C56.821247,74.000000 48.185528,74.000000 38.566719,74.000000 
M70.074570,11.416963 
	C57.965187,19.365543 58.418789,31.425165 59.225891,43.641644 
	C67.606781,45.224903 74.641846,42.878059 80.759674,37.633415 
	C81.761696,36.774406 82.104286,35.146164 82.800690,33.777046 
	C76.619377,35.288132 71.591461,36.517254 66.274597,37.817017 
	C66.169846,21.129625 76.068497,11.862142 96.999062,15.607086 
	C96.999062,20.525425 97.298088,25.517887 96.932281,30.461149 
	C96.310127,38.868290 90.840965,46.809292 83.329773,48.012100 
	C73.408516,49.600853 63.284573,49.923866 52.999989,50.812366 
	C52.999989,43.505474 53.264698,37.671631 52.939350,31.870882 
	C52.422199,22.650381 48.093872,15.743319 39.998501,10.931455 
	C29.540098,4.715014 18.292042,7.856783 7.252996,6.923927 
	C7.252996,9.884993 7.252996,12.284350 7.252996,15.000006 
	C14.300163,15.000006 21.101894,14.890025 27.896147,15.067053 
	C29.933334,15.120132 32.092461,15.662285 33.951077,16.514158 
	C42.467136,20.417385 45.659714,27.725252 45.954983,36.536747 
	C46.181229,43.288422 45.999996,50.053745 45.999996,56.998924 
	C58.270382,56.998924 69.963356,57.668488 81.539413,56.792675 
	C91.262779,56.057026 99.433266,50.206936 101.655441,40.879150 
	C104.231812,30.064575 103.933113,18.565063 104.934723,6.746170 
	C92.455559,7.817391 81.049065,4.657941 70.074570,11.416963 
M446.000000,41.633427 
	C445.902130,50.638748 446.202576,59.668655 445.002502,68.692291 
	C438.184082,59.130730 432.354431,49.493084 426.346375,39.967960 
	C425.539215,38.688236 423.923584,37.331028 422.523621,37.133266 
	C419.483673,36.703850 416.341125,37.000824 413.000000,37.000824 
	C413.000000,46.368561 413.000000,55.167400 413.000000,63.966236 
	C413.000000,72.894501 413.000000,81.822762 413.000000,90.704025 
	C416.968964,90.704025 420.368256,90.704025 424.365234,90.704025 
	C424.365234,80.291718 424.365234,70.166183 424.365234,59.332409 
	C425.593079,60.328892 426.244324,60.632687 426.555817,61.143627 
	C432.095642,70.230576 437.559174,79.364288 443.148529,88.420395 
	C443.804596,89.483337 445.049103,90.788742 446.116425,90.881470 
	C449.673462,91.190498 453.274048,90.998474 457.000000,90.998474 
	C457.000000,81.509651 457.000000,72.697693 457.000000,63.885738 
	C457.000000,54.969528 457.000000,46.053314 457.000000,37.000229 
	C454.015381,37.000229 451.672058,37.205833 449.380371,36.949734 
	C446.311005,36.606735 445.618286,38.057278 446.000000,41.633427 
M278.198273,91.000000 
	C279.623199,91.000000 281.048126,91.000000 283.873718,91.000000 
	C277.911407,82.282951 272.554535,74.451111 267.142609,66.538750 
	C267.374847,66.472832 268.455688,66.260147 269.464752,65.864418 
	C276.103790,63.260704 279.718170,57.238640 278.997986,50.059330 
	C278.358490,43.684288 273.510315,37.604218 266.986725,37.221474 
	C256.106201,36.583111 245.161026,37.047318 234.000000,37.047318 
	C234.000000,46.378479 234.000000,55.176823 234.000000,63.975163 
	C234.000000,72.901009 234.000000,81.826851 234.000000,90.702728 
	C238.306946,90.702728 242.039825,90.702728 246.122925,90.702728 
	C246.122925,82.978210 246.122925,75.543938 246.122925,68.159714 
	C254.187927,67.154739 257.009644,72.849564 260.621613,77.977570 
	C264.795013,83.902657 266.724884,93.134392 278.198273,91.000000 
M362.579834,40.945137 
	C354.193542,47.707912 352.378784,56.843773 352.970123,66.970238 
	C353.582428,77.455879 357.687897,85.802315 367.651276,90.048820 
	C377.034790,94.048203 390.628174,92.745796 397.931549,85.646446 
	C402.893433,80.823166 404.852844,74.625244 405.726501,68.273140 
	C406.961761,59.292168 404.809326,50.848721 399.045197,43.545033 
	C391.608795,34.122425 371.212982,33.542728 362.579834,40.945137 
M131.384918,90.999931 
	C134.078293,91.422592 135.169601,90.538712 135.070663,87.564224 
	C134.845764,80.803596 134.999786,74.030357 134.999786,67.298073 
	C141.967270,67.298073 148.368866,67.298073 155.192932,67.298073 
	C155.192932,75.333122 155.192932,83.076279 155.192932,90.668518 
	C159.366302,90.668518 163.101471,90.668518 166.657654,90.668518 
	C166.657654,72.600464 166.657654,54.865589 166.657654,37.362457 
	C162.573349,37.362457 158.837509,37.362457 154.856384,37.362457 
	C154.856384,44.340900 154.856384,50.959152 154.856384,57.781586 
	C148.197189,57.781586 141.797546,57.781586 134.964752,57.781586 
	C134.964752,50.833412 134.964752,44.089500 134.964752,37.250790 
	C130.793976,37.250790 127.060555,37.250790 123.264267,37.250790 
	C123.264267,55.236195 123.264267,72.969666 123.264267,91.000000 
	C125.827789,91.000000 128.130539,91.000000 131.384918,90.999931 
M337.026428,59.456951 
	C338.349030,57.804482 339.606873,56.094814 341.006287,54.510178 
	C345.347412,49.594509 350.049377,44.842857 347.480682,37.248798 
	C334.444000,37.248798 321.380463,37.248798 308.260895,37.248798 
	C308.260895,40.234230 308.260895,42.965023 308.260895,46.139725 
	C316.530121,46.139725 324.549194,46.139725 333.003387,46.139725 
	C325.035248,55.617771 317.534210,64.653290 309.900879,73.575600 
	C305.634155,78.562782 302.040619,83.643646 304.542328,90.737984 
	C319.257660,90.737984 333.985168,90.737984 348.724548,90.737984 
	C348.724548,87.737839 348.724548,85.006546 348.724548,81.688248 
	C338.651855,81.688248 328.843292,81.688248 318.359436,81.688248 
	C324.806915,73.985527 330.667786,66.983612 337.026428,59.456951 
M299.000000,55.500557 
	C299.000000,49.407406 299.000000,43.314259 299.000000,37.306961 
	C295.007721,37.306961 291.609070,37.306961 288.293152,37.306961 
	C288.293152,55.333061 288.293152,73.050690 288.293152,90.693283 
	C291.992676,90.693283 295.389252,90.693283 299.000000,90.693283 
	C299.000000,79.091995 299.000000,67.796211 299.000000,55.500557 
M88.833572,76.319481 
	C83.357964,75.329796 77.882362,74.340111 72.312706,73.333420 
	C72.312706,77.020287 72.312706,79.422981 72.312706,82.106583 
	C80.677849,81.230766 87.404236,83.220116 92.725731,90.023613 
	C97.976715,96.736961 96.671898,104.487984 97.083473,111.965538 
	C99.354210,111.965538 101.015694,111.980179 102.676430,111.951851 
	C102.970818,111.946831 103.262146,111.762894 103.653183,111.627556 
	C105.184975,97.469780 104.228226,84.350586 88.833572,76.319481 
M21.519257,54.069424 
	C27.206774,58.224316 33.587044,56.852005 39.674095,56.889786 
	C39.674095,54.282375 39.674095,52.216621 39.674095,49.982071 
	C31.243591,50.653114 23.929441,48.438576 18.795254,42.092812 
	C13.761618,35.871326 13.553737,28.014486 14.013510,20.239971 
	C11.461782,20.239971 9.400215,20.239971 7.337345,20.239971 
	C5.793610,34.054050 7.458545,46.340576 21.519257,54.069424 
M65.494705,69.000000 
	C70.658684,69.000000 75.822670,69.000000 82.123108,69.000000 
	C77.607956,63.825287 73.367851,61.875641 67.918159,61.947449 
	C55.353210,62.113022 42.784592,62.000000 29.248520,62.000000 
	C32.427307,66.333488 35.201141,69.088135 40.009323,69.028061 
	C48.170753,68.926064 56.334381,69.000000 65.494705,69.000000 
z"/>
<path fill="#0F4B29" opacity="1.000000" stroke="none" 
	d="
M39.058266,74.000000 
	C48.185528,74.000000 56.821247,74.000000 66.000000,74.000000 
	C66.000000,82.214073 66.244827,90.160408 65.935028,98.085075 
	C65.585838,107.017159 74.555870,116.911331 84.613815,116.990715 
	C90.913673,117.040443 97.214249,116.999969 103.754158,116.999969 
	C103.754158,119.393509 103.754158,121.457390 103.754158,124.130089 
	C92.850494,122.884880 81.588158,126.743874 71.312408,120.677589 
	C63.202511,115.889931 58.733017,108.560272 58.070522,99.202843 
	C57.683491,93.736198 58.000011,88.219749 58.000011,81.903152 
	C47.186050,83.139389 36.197868,79.422806 25.819599,84.125084 
	C17.988625,87.673210 14.468225,94.555763 14.040306,102.961510 
	C13.812910,107.428345 14.000012,111.916275 14.000012,116.348045 
	C33.133530,120.109200 46.494701,110.323746 44.610989,93.602066 
	C39.474655,94.798950 34.414558,95.978065 29.354460,97.157181 
	C29.203741,96.719307 29.053024,96.281433 28.902308,95.843552 
	C34.941929,89.562943 42.272285,86.283531 51.961266,87.148537 
	C51.961266,93.096336 52.741028,99.162277 51.789806,104.943405 
	C50.102219,115.199898 37.197998,124.973648 28.713665,124.138733 
	C21.785181,123.456924 14.736161,124.000000 7.007055,124.000000 
	C7.731043,112.510986 4.880797,100.915314 9.157380,89.807594 
	C12.283367,81.688370 22.200560,73.007736 39.058266,74.000000 
z"/>
<path fill="#0F4B29" opacity="1.000000" stroke="none" 
	d="
M70.406982,11.224573 
	C81.049065,4.657941 92.455559,7.817391 104.934723,6.746170 
	C103.933113,18.565063 104.231812,30.064575 101.655441,40.879150 
	C99.433266,50.206936 91.262779,56.057026 81.539413,56.792675 
	C69.963356,57.668488 58.270382,56.998924 45.999996,56.998924 
	C45.999996,50.053745 46.181229,43.288422 45.954983,36.536747 
	C45.659714,27.725252 42.467136,20.417385 33.951077,16.514158 
	C32.092461,15.662285 29.933334,15.120132 27.896147,15.067053 
	C21.101894,14.890025 14.300163,15.000006 7.252996,15.000006 
	C7.252996,12.284350 7.252996,9.884993 7.252996,6.923927 
	C18.292042,7.856783 29.540098,4.715014 39.998501,10.931455 
	C48.093872,15.743319 52.422199,22.650381 52.939350,31.870882 
	C53.264698,37.671631 52.999989,43.505474 52.999989,50.812366 
	C63.284573,49.923866 73.408516,49.600853 83.329773,48.012100 
	C90.840965,46.809292 96.310127,38.868290 96.932281,30.461149 
	C97.298088,25.517887 96.999062,20.525425 96.999062,15.607086 
	C76.068497,11.862142 66.169846,21.129625 66.274597,37.817017 
	C71.591461,36.517254 76.619377,35.288132 82.800690,33.777046 
	C82.104286,35.146164 81.761696,36.774406 80.759674,37.633415 
	C74.641846,42.878059 67.606781,45.224903 59.225891,43.641644 
	C58.418789,31.425165 57.965187,19.365543 70.406982,11.224573 
z"/>
<path fill="#0F4B29" opacity="1.000000" stroke="none" 
	d="
M446.000000,41.149811 
	C445.618286,38.057278 446.311005,36.606735 449.380371,36.949734 
	C451.672058,37.205833 454.015381,37.000229 457.000000,37.000229 
	C457.000000,46.053314 457.000000,54.969528 457.000000,63.885738 
	C457.000000,72.697693 457.000000,81.509651 457.000000,90.998474 
	C453.274048,90.998474 449.673462,91.190498 446.116425,90.881470 
	C445.049103,90.788742 443.804596,89.483337 443.148529,88.420395 
	C437.559174,79.364288 432.095642,70.230576 426.555817,61.143627 
	C426.244324,60.632687 425.593079,60.328892 424.365234,59.332409 
	C424.365234,70.166183 424.365234,80.291718 424.365234,90.704025 
	C420.368256,90.704025 416.968964,90.704025 413.000000,90.704025 
	C413.000000,81.822762 413.000000,72.894501 413.000000,63.966236 
	C413.000000,55.167400 413.000000,46.368561 413.000000,37.000824 
	C416.341125,37.000824 419.483673,36.703850 422.523621,37.133266 
	C423.923584,37.331028 425.539215,38.688236 426.346375,39.967960 
	C432.354431,49.493084 438.184082,59.130730 445.002502,68.692291 
	C446.202576,59.668655 445.902130,50.638748 446.000000,41.149811 
z"/>
<path fill="#0F4B29" opacity="1.000000" stroke="none" 
	d="
M277.750305,91.000000 
	C266.724884,93.134392 264.795013,83.902657 260.621613,77.977570 
	C257.009644,72.849564 254.187927,67.154739 246.122925,68.159714 
	C246.122925,75.543938 246.122925,82.978210 246.122925,90.702728 
	C242.039825,90.702728 238.306946,90.702728 234.000000,90.702728 
	C234.000000,81.826851 234.000000,72.901009 234.000000,63.975163 
	C234.000000,55.176823 234.000000,46.378479 234.000000,37.047318 
	C245.161026,37.047318 256.106201,36.583111 266.986725,37.221474 
	C273.510315,37.604218 278.358490,43.684288 278.997986,50.059330 
	C279.718170,57.238640 276.103790,63.260704 269.464752,65.864418 
	C268.455688,66.260147 267.374847,66.472832 267.142609,66.538750 
	C272.554535,74.451111 277.911407,82.282951 283.873718,91.000000 
	C281.048126,91.000000 279.623199,91.000000 277.750305,91.000000 
M250.579483,59.000000 
	C254.146408,58.670864 257.709534,58.134308 261.281311,58.068531 
	C265.172516,57.996861 267.277191,54.945396 266.647034,52.514946 
	C265.989868,49.980312 262.909515,46.855202 260.376831,46.292782 
	C255.845352,45.286499 250.929886,46.009281 246.000198,46.009281 
	C246.000198,49.621120 246.206024,52.621006 245.942749,55.579140 
	C245.675369,58.583450 246.958267,59.409889 250.579483,59.000000 
z"/>
<path fill="#0F4B29" opacity="1.000000" stroke="none" 
	d="
M362.828125,40.668434 
	C371.212982,33.542728 391.608795,34.122425 399.045197,43.545033 
	C404.809326,50.848721 406.961761,59.292168 405.726501,68.273140 
	C404.852844,74.625244 402.893433,80.823166 397.931549,85.646446 
	C390.628174,92.745796 377.034790,94.048203 367.651276,90.048820 
	C357.687897,85.802315 353.582428,77.455879 352.970123,66.970238 
	C352.378784,56.843773 354.193542,47.707912 362.828125,40.668434 
M365.000153,67.173630 
	C365.332581,68.744133 365.796844,70.300018 365.972931,71.887856 
	C366.523529,76.853432 373.167175,82.844048 379.329498,82.913246 
	C384.318970,82.969269 390.970673,79.435204 391.901794,73.291847 
	C392.734131,67.800194 393.081940,62.155544 392.868500,56.608227 
	C392.670898,51.472580 386.751770,46.194473 381.044739,45.031780 
	C377.383484,44.285877 371.270691,47.502258 368.483002,50.866535 
	C364.632324,55.513683 364.980652,60.869194 365.000153,67.173630 
z"/>
<path fill="#0F4B29" opacity="1.000000" stroke="none" 
	d="
M130.909103,90.999969 
	C128.130539,91.000000 125.827789,91.000000 123.264267,91.000000 
	C123.264267,72.969666 123.264267,55.236195 123.264267,37.250790 
	C127.060555,37.250790 130.793976,37.250790 134.964752,37.250790 
	C134.964752,44.089500 134.964752,50.833412 134.964752,57.781586 
	C141.797546,57.781586 148.197189,57.781586 154.856384,57.781586 
	C154.856384,50.959152 154.856384,44.340900 154.856384,37.362457 
	C158.837509,37.362457 162.573349,37.362457 166.657654,37.362457 
	C166.657654,54.865589 166.657654,72.600464 166.657654,90.668518 
	C163.101471,90.668518 159.366302,90.668518 155.192932,90.668518 
	C155.192932,83.076279 155.192932,75.333122 155.192932,67.298073 
	C148.368866,67.298073 141.967270,67.298073 134.999786,67.298073 
	C134.999786,74.030357 134.845764,80.803596 135.070663,87.564224 
	C135.169601,90.538712 134.078293,91.422592 130.909103,90.999969 
z"/>
<path fill="#0F4B29" opacity="1.000000" stroke="none" 
	d="
M336.777527,59.719322 
	C330.667786,66.983612 324.806915,73.985527 318.359436,81.688248 
	C328.843292,81.688248 338.651855,81.688248 348.724548,81.688248 
	C348.724548,85.006546 348.724548,87.737839 348.724548,90.737984 
	C333.985168,90.737984 319.257660,90.737984 304.542328,90.737984 
	C302.040619,83.643646 305.634155,78.562782 309.900879,73.575600 
	C317.534210,64.653290 325.035248,55.617771 333.003387,46.139725 
	C324.549194,46.139725 316.530121,46.139725 308.260895,46.139725 
	C308.260895,42.965023 308.260895,40.234230 308.260895,37.248798 
	C321.380463,37.248798 334.444000,37.248798 347.480682,37.248798 
	C350.049377,44.842857 345.347412,49.594509 341.006287,54.510178 
	C339.606873,56.094814 338.349030,57.804482 336.777527,59.719322 
z"/>
<path fill="#0F4B29" opacity="1.000000" stroke="none" 
	d="
M184.953964,39.889542 
	C185.400101,39.592491 185.846222,39.295437 186.942291,39.127789 
	C189.455200,39.820370 191.322845,40.871605 193.180267,40.853832 
	C198.437469,40.803547 203.695099,40.374184 208.942032,39.960434 
	C210.328979,39.851063 211.677795,39.258240 213.044128,38.887405 
	C219.096603,41.106728 224.993515,49.402256 225.156769,55.609631 
	C225.246063,59.004292 225.943604,62.388206 225.957520,65.778641 
	C226.003723,77.039558 221.542892,87.774437 208.385452,91.056366 
	C189.542877,95.756371 174.319794,86.136200 174.150925,66.256981 
	C174.104095,60.745186 175.888885,55.217838 177.402283,49.348980 
	C181.681366,49.671135 184.565445,48.031418 186.135559,44.987862 
	C186.745193,43.806110 185.405609,41.618793 184.953964,39.889542 
M212.689499,76.973000 
	C218.860352,76.655846 218.166138,70.843674 218.567703,67.666557 
	C219.004700,64.209137 220.002457,58.673603 214.011139,56.273403 
	C213.336212,54.818981 212.811356,53.269680 211.961700,51.925728 
	C206.905090,43.927551 195.965027,42.085358 189.424500,51.156628 
	C183.100494,59.927582 184.666977,71.250000 193.106064,81.587357 
	C198.888458,87.576965 199.842560,87.796631 206.509750,84.790062 
	C207.255310,84.453850 208.060211,84.214134 208.861786,84.042946 
	C214.444214,82.850716 214.966064,81.655418 211.984665,76.997910 
	C211.984665,76.997910 211.903244,76.941528 212.689499,76.973000 
z"/>
<path fill="#0F4B29" opacity="1.000000" stroke="none" 
	d="
M299.000000,56.000488 
	C299.000000,67.796211 299.000000,79.091995 299.000000,90.693283 
	C295.389252,90.693283 291.992676,90.693283 288.293152,90.693283 
	C288.293152,73.050690 288.293152,55.333061 288.293152,37.306961 
	C291.609070,37.306961 295.007721,37.306961 299.000000,37.306961 
	C299.000000,43.314259 299.000000,49.407406 299.000000,56.000488 
z"/>
<path fill="#0F4B29" opacity="1.000000" stroke="none" 
	d="
M89.114258,76.600388 
	C104.228226,84.350586 105.184975,97.469780 103.653183,111.627556 
	C103.262146,111.762894 102.970818,111.946831 102.676430,111.951851 
	C101.015694,111.980179 99.354210,111.965538 97.083473,111.965538 
	C96.671898,104.487984 97.976715,96.736961 92.725731,90.023613 
	C87.404236,83.220116 80.677849,81.230766 72.312706,82.106583 
	C72.312706,79.422981 72.312706,77.020287 72.312706,73.333420 
	C77.882362,74.340111 83.357964,75.329796 89.114258,76.600388 
z"/>
<path fill="#0F4B29" opacity="1.000000" stroke="none" 
	d="
M21.136425,54.020241 
	C7.458545,46.340576 5.793610,34.054050 7.337345,20.239971 
	C9.400215,20.239971 11.461782,20.239971 14.013510,20.239971 
	C13.553737,28.014486 13.761618,35.871326 18.795254,42.092812 
	C23.929441,48.438576 31.243591,50.653114 39.674095,49.982071 
	C39.674095,52.216621 39.674095,54.282375 39.674095,56.889786 
	C33.587044,56.852005 27.206774,58.224316 21.136425,54.020241 
z"/>
<path fill="#0F4B29" opacity="1.000000" stroke="none" 
	d="
M64.995895,69.000000 
	C56.334381,69.000000 48.170753,68.926064 40.009323,69.028061 
	C35.201141,69.088135 32.427307,66.333488 29.248520,62.000000 
	C42.784592,62.000000 55.353210,62.113022 67.918159,61.947449 
	C73.367851,61.875641 77.607956,63.825287 82.123108,69.000000 
	C75.822670,69.000000 70.658684,69.000000 64.995895,69.000000 
z"/>
<path fill="#0F4B29" opacity="1.000000" stroke="none" 
	d="
M212.869965,38.548809 
	C211.677795,39.258240 210.328979,39.851063 208.942032,39.960434 
	C203.695099,40.374184 198.437469,40.803547 193.180267,40.853832 
	C191.322845,40.871605 189.455200,39.820370 187.242432,39.104191 
	C195.374222,34.543503 203.993057,34.915695 212.869965,38.548809 
z"/>
<path fill="#0F4B29" opacity="1.000000" stroke="none" 
	d="
M184.641098,40.019135 
	C185.405609,41.618793 186.745193,43.806110 186.135559,44.987862 
	C184.565445,48.031418 181.681366,49.671135 177.568939,49.000595 
	C179.553848,46.050144 181.941040,43.099434 184.641098,40.019135 
z"/>
<path fill="#FFFFFF" opacity="1.000000" stroke="none" 
	d="
M250.102570,58.999969 
	C246.958267,59.409889 245.675369,58.583450 245.942749,55.579140 
	C246.206024,52.621006 246.000198,49.621120 246.000198,46.009281 
	C250.929886,46.009281 255.845352,45.286499 260.376831,46.292782 
	C262.909515,46.855202 265.989868,49.980312 266.647034,52.514946 
	C267.277191,54.945396 265.172516,57.996861 261.281311,58.068531 
	C257.709534,58.134308 254.146408,58.670864 250.102570,58.999969 
z"/>
<path fill="#FFFFFF" opacity="1.000000" stroke="none" 
	d="
M365.000061,66.717278 
	C364.980652,60.869194 364.632324,55.513683 368.483002,50.866535 
	C371.270691,47.502258 377.383484,44.285877 381.044739,45.031780 
	C386.751770,46.194473 392.670898,51.472580 392.868500,56.608227 
	C393.081940,62.155544 392.734131,67.800194 391.901794,73.291847 
	C390.970673,79.435204 384.318970,82.969269 379.329498,82.913246 
	C373.167175,82.844048 366.523529,76.853432 365.972931,71.887856 
	C365.796844,70.300018 365.332581,68.744133 365.000061,66.717278 
z"/>
<path fill="#FFFFFF" opacity="1.000000" stroke="none" 
	d="
M193.041962,80.884964 
	C184.666977,71.250000 183.100494,59.927582 189.424500,51.156628 
	C195.965027,42.085358 206.905090,43.927551 211.961700,51.925728 
	C212.811356,53.269680 213.336212,54.818981 214.014008,57.056496 
	C216.513107,64.561066 213.819855,70.708328 211.903244,76.941528 
	C211.903244,76.941528 211.984665,76.997910 211.638947,77.088409 
	C206.219604,83.388885 200.047409,84.188675 193.041962,80.884964 
z"/>
<path fill="#0F4B29" opacity="1.000000" stroke="none" 
	d="
M193.074005,81.236160 
	C200.047409,84.188675 206.219604,83.388885 211.611481,77.047203 
	C214.966064,81.655418 214.444214,82.850716 208.861786,84.042946 
	C208.060211,84.214134 207.255310,84.453850 206.509750,84.790062 
	C199.842560,87.796631 198.888458,87.576965 193.074005,81.236160 
z"/>
<path fill="#0F4B29" opacity="1.000000" stroke="none" 
	d="
M212.296371,76.957260 
	C213.819855,70.708328 216.513107,64.561066 214.091766,57.419643 
	C220.002457,58.673603 219.004700,64.209137 218.567703,67.666557 
	C218.166138,70.843674 218.860352,76.655846 212.296371,76.957260 
z"/>
</svg>